<svg xmlns="http://www.w3.org/2000/svg" xmlns:xlink="http://www.w3.org/1999/xlink" fill="none" version="1.1" width="14" height="14" viewBox="0 0 14 14"><g><path d="M7,0C3.136,0,0,3.136,0,7C0,10.864,3.136,14,7,14C10.864,14,14,10.864,14,7C14,3.136,10.864,0,7,0ZM7,11.2C6.601,11.2,6.286,10.878,6.286,10.486C6.286,10.087,6.608,9.772,7,9.772C7.399,9.772,7.714,10.094,7.714,10.486C7.714,10.878,7.399,11.2,7,11.2ZM7.777,3.213L7.63,8.309C7.623,8.575,7.35,8.785,7.028,8.785L6.916,8.785C6.594,8.785,6.321,8.575,6.314,8.309L6.16,3.213C6.146,2.807,6.475,2.464,6.895,2.464L7.042,2.464C7.462,2.464,7.791,2.807,7.777,3.213Z" fill="#FFFFFF" fill-opacity="1"/></g></svg>