<svg xmlns="http://www.w3.org/2000/svg" xmlns:xlink="http://www.w3.org/1999/xlink" fill="none" version="1.1" width="717.5791015625" height="271" viewBox="0 0 717.5791015625 271"><defs><linearGradient x1="0" y1="0" x2="0.698822557926178" y2="0.702833354473114" id="master_svg0_7424_58040"><stop offset="23.01284372806549%" stop-color="#FFFFFF" stop-opacity="1"/><stop offset="71.33292555809021%" stop-color="#FFFFFF" stop-opacity="1"/></linearGradient><linearGradient x1="0" y1="0.10857298225164413" x2="0.8474304676055908" y2="0.848531186580658" id="master_svg1_7424_58042"><stop offset="0%" stop-color="#FFFFFF" stop-opacity="1"/><stop offset="62.0015025138855%" stop-color="#FFFFFF" stop-opacity="1"/></linearGradient></defs><g style="mix-blend-mode:passthrough"><path d="M8,0L709.579,0C713.997,0,717.579,3.58172,717.579,8L717.579,263C717.579,267.418,713.997,271,709.579,271L7.99998,271C3.58172,271,0,267.418,0,263L0,7.99999C0,3.58172,3.58172,0,8,0" fill-rule="evenodd" fill="url(#master_svg0_7424_58040)" fill-opacity="1"/><path d="M8,0L709.579,0C713.997,0,717.579,3.58172,717.579,8L717.579,263C717.579,267.418,713.997,271,709.579,271L7.99998,271C3.58172,271,0,267.418,0,263L0,7.99999C0,3.58172,3.58172,0,8,0" fill-rule="evenodd" fill="url(#master_svg1_7424_58042)" fill-opacity="1"/></g></svg>