<svg xmlns="http://www.w3.org/2000/svg" xmlns:xlink="http://www.w3.org/1999/xlink" fill="none" version="1.1" width="180" height="180" viewBox="0 0 180 180"><defs><linearGradient x1="0.920735776424408" y1="0.20434261858463287" x2="0.5" y2="1" id="master_svg0_7424_67488"><stop offset="0%" stop-color="#A7D1FF" stop-opacity="1"/><stop offset="100%" stop-color="#E8F2FF" stop-opacity="0"/></linearGradient><linearGradient x1="0.318523645401001" y1="0.9155844449996948" x2="0.7158234715461731" y2="0.3431285619735718" id="master_svg1_7424_65712"><stop offset="0%" stop-color="#FFFFFF" stop-opacity="1"/><stop offset="100%" stop-color="#FFFFFF" stop-opacity="0.15000000596046448"/></linearGradient></defs><g style="mix-blend-mode:passthrough"><path d="M163.942,42.6906Q164.169,42.8215,164.387,42.967Q164.605,43.1125,164.812,43.272Q165.02,43.4314,165.217,43.6041Q165.414,43.7768,165.599,43.9619Q165.784,44.1471,165.957,44.344Q166.13,44.5409,166.289,44.7487Q166.449,44.9565,166.594,45.1742Q166.74,45.392,166.87,45.6188Q167.001,45.8456,167.117,46.0805Q167.233,46.3154,167.333,46.5573Q167.434,46.7993,167.518,47.0473Q167.602,47.2953,167.67,47.5483Q167.737,47.8012,167.789,48.0581Q167.84,48.3149,167.874,48.5746Q167.908,48.8343,167.925,49.0956Q167.942,49.3569,167.942,49.6188L167.942,130.381Q167.942,130.643,167.925,130.904Q167.908,131.166,167.874,131.425Q167.84,131.685,167.789,131.942Q167.737,132.199,167.67,132.452Q167.602,132.705,167.518,132.953Q167.434,133.201,167.333,133.443Q167.233,133.685,167.117,133.92Q167.001,134.154,166.87,134.381Q166.74,134.608,166.594,134.826Q166.449,135.044,166.289,135.251Q166.13,135.459,165.957,135.656Q165.784,135.853,165.599,136.038Q165.414,136.223,165.217,136.396Q165.02,136.569,164.812,136.728Q164.605,136.887,164.387,137.033Q164.169,137.178,163.942,137.309L94,177.691Q93.7732,177.822,93.5383,177.937Q93.3034,178.053,93.0615,178.153Q92.8195,178.254,92.5715,178.338Q92.3235,178.422,92.0706,178.49Q91.8176,178.558,91.5607,178.609Q91.3039,178.66,91.0442,178.694Q90.7846,178.728,90.5232,178.745Q90.2619,178.762,90,178.762Q89.7381,178.762,89.4768,178.745Q89.2154,178.728,88.9558,178.694Q88.6961,178.66,88.4393,178.609Q88.1824,178.558,87.9295,178.49Q87.6765,178.422,87.4285,178.338Q87.1805,178.254,86.9385,178.153Q86.6966,178.053,86.4617,177.937Q86.2268,177.822,86,177.691L16.0577,137.309Q15.8309,137.178,15.6132,137.033Q15.3954,136.887,15.1876,136.728Q14.9799,136.569,14.7829,136.396Q14.586,136.223,14.4009,136.038Q14.2157,135.853,14.043,135.656Q13.8703,135.459,13.7109,135.251Q13.5515,135.044,13.406,134.826Q13.2605,134.608,13.1295,134.381Q12.9986,134.154,12.8827,133.92Q12.7669,133.685,12.6667,133.443Q12.5665,133.201,12.4823,132.953Q12.3981,132.705,12.3303,132.452Q12.2625,132.199,12.2114,131.942Q12.1603,131.685,12.1262,131.425Q12.092,131.166,12.0748,130.904Q12.0577,130.643,12.0577,130.381L12.0577,49.6188Q12.0577,49.3569,12.0748,49.0956Q12.092,48.8343,12.1262,48.5746Q12.1603,48.3149,12.2114,48.0581Q12.2625,47.8012,12.3303,47.5483Q12.3981,47.2953,12.4823,47.0473Q12.5665,46.7993,12.6667,46.5573Q12.7669,46.3154,12.8827,46.0805Q12.9986,45.8456,13.1295,45.6188Q13.2605,45.392,13.406,45.1742Q13.5515,44.9565,13.7109,44.7487Q13.8703,44.5409,14.043,44.344Q14.2157,44.1471,14.4009,43.9619Q14.586,43.7768,14.7829,43.6041Q14.9798,43.4314,15.1876,43.272Q15.3954,43.1126,15.6132,42.967Q15.8309,42.8215,16.0577,42.6906L86,2.3094Q86.2268,2.17845,86.4617,2.06262Q86.6966,1.94679,86.9385,1.84657Q87.1805,1.74635,87.4285,1.66216Q87.6765,1.57798,87.9295,1.5102Q88.1824,1.44242,88.4393,1.39132Q88.6961,1.34023,88.9558,1.30605Q89.2154,1.27186,89.4768,1.25473Q89.7381,1.2376,90,1.2376Q90.2619,1.2376,90.5232,1.25473Q90.7846,1.27186,91.0442,1.30605Q91.3039,1.34023,91.5607,1.39132Q91.8176,1.44242,92.0706,1.5102Q92.3235,1.57798,92.5715,1.66216Q92.8195,1.74635,93.0615,1.84657Q93.3034,1.94679,93.5383,2.06262Q93.7732,2.17846,94,2.3094L163.942,42.6906Z" fill="url(#master_svg0_7424_67488)" fill-opacity="1"/><path d="M167.942,49.6188Q167.942,49.3569,167.925,49.0956Q167.908,48.8343,167.874,48.5746Q167.84,48.3149,167.789,48.0581Q167.737,47.8012,167.67,47.5483Q167.602,47.2953,167.518,47.0473Q167.434,46.7993,167.333,46.5573Q167.233,46.3154,167.117,46.0805Q167.001,45.8456,166.87,45.6188Q166.74,45.392,166.594,45.1742Q166.449,44.9565,166.289,44.7487Q166.13,44.5409,165.957,44.344Q165.784,44.1471,165.599,43.9619Q165.414,43.7768,165.217,43.6041Q165.02,43.4314,164.812,43.272Q164.605,43.1125,164.387,42.967Q164.169,42.8215,163.942,42.6906L94,2.3094Q93.7732,2.17846,93.5383,2.06262Q93.3034,1.94679,93.0615,1.84657Q92.8195,1.74635,92.5715,1.66216Q92.3235,1.57798,92.0706,1.5102Q91.8176,1.44242,91.5607,1.39132Q91.3039,1.34023,91.0442,1.30605Q90.7846,1.27186,90.5232,1.25473Q90.2619,1.2376,90,1.2376Q89.7381,1.2376,89.4768,1.25473Q89.2154,1.27186,88.9558,1.30605Q88.6961,1.34023,88.4393,1.39132Q88.1824,1.44242,87.9295,1.5102Q87.6765,1.57798,87.4285,1.66216Q87.1805,1.74635,86.9385,1.84657Q86.6966,1.94679,86.4617,2.06262Q86.2268,2.17845,86,2.3094L16.0577,42.6906Q15.8309,42.8215,15.6132,42.9671Q15.3954,43.1126,15.1876,43.272Q14.9798,43.4314,14.7829,43.6041Q14.586,43.7768,14.4009,43.962Q14.2157,44.1471,14.043,44.344Q13.8703,44.5409,13.7109,44.7487Q13.5515,44.9565,13.406,45.1742Q13.2605,45.392,13.1295,45.6188Q12.9986,45.8456,12.8827,46.0805Q12.7669,46.3154,12.6667,46.5573Q12.5665,46.7993,12.4823,47.0473Q12.3981,47.2953,12.3303,47.5483Q12.2625,47.8012,12.2114,48.0581Q12.1603,48.3149,12.1262,48.5746Q12.092,48.8343,12.0748,49.0956Q12.0577,49.3569,12.0577,49.6188L12.0577,130.381Q12.0577,130.643,12.0748,130.904Q12.092,131.166,12.1262,131.425Q12.1603,131.685,12.2114,131.942Q12.2625,132.199,12.3303,132.452Q12.3981,132.705,12.4823,132.953Q12.5665,133.201,12.6667,133.443Q12.7669,133.685,12.8827,133.92Q12.9986,134.154,13.1295,134.381Q13.2605,134.608,13.406,134.826Q13.5515,135.044,13.7109,135.251Q13.8703,135.459,14.043,135.656Q14.2157,135.853,14.4009,136.038Q14.586,136.223,14.783,136.396Q14.9799,136.569,15.1876,136.728Q15.3954,136.887,15.6132,137.033Q15.8309,137.178,16.0577,137.309L86,177.691Q86.2268,177.822,86.4617,177.937Q86.6966,178.053,86.9385,178.153Q87.1805,178.254,87.4285,178.338Q87.6765,178.422,87.9295,178.49Q88.1824,178.558,88.4393,178.609Q88.6961,178.66,88.9558,178.694Q89.2154,178.728,89.4768,178.745Q89.7381,178.762,90,178.762Q90.2619,178.762,90.5232,178.745Q90.7846,178.728,91.0442,178.694Q91.3039,178.66,91.5607,178.609Q91.8176,178.558,92.0706,178.49Q92.3235,178.422,92.5715,178.338Q92.8195,178.254,93.0615,178.153Q93.3034,178.053,93.5383,177.937Q93.7732,177.822,94,177.691L163.942,137.309Q164.169,137.178,164.387,137.033Q164.605,136.887,164.812,136.728Q165.02,136.569,165.217,136.396Q165.414,136.223,165.599,136.038Q165.784,135.853,165.957,135.656Q166.13,135.459,166.289,135.251Q166.449,135.044,166.594,134.826Q166.74,134.608,166.87,134.381Q167.001,134.154,167.117,133.92Q167.233,133.685,167.333,133.443Q167.434,133.201,167.518,132.953Q167.602,132.705,167.67,132.452Q167.737,132.199,167.789,131.942Q167.84,131.685,167.874,131.425Q167.908,131.166,167.925,130.904Q167.942,130.643,167.942,130.381L167.942,49.6188ZM93.5,3.17543L163.442,43.5566Q165.067,44.4944,166.004,46.1188Q166.942,47.7432,166.942,49.6188L166.942,130.381Q166.942,132.257,166.004,133.881Q165.067,135.506,163.442,136.443L93.5,176.825Q91.8756,177.762,90,177.762Q88.1244,177.762,86.5,176.825L16.5577,136.443Q14.9334,135.506,13.9955,133.881Q13.0577,132.257,13.0577,130.381L13.0577,49.6188Q13.0577,47.7432,13.9955,46.1188Q14.9334,44.4944,16.5577,43.5566L86.5,3.17543Q88.1244,2.2376,90,2.2376Q91.8756,2.2376,93.5,3.17543Z" fill-rule="evenodd" fill="url(#master_svg1_7424_65712)" fill-opacity="1"/></g></svg>