<svg xmlns="http://www.w3.org/2000/svg" xmlns:xlink="http://www.w3.org/1999/xlink" fill="none" version="1.1" width="13.007353782653809" height="11.997416496276855" viewBox="0 0 13.007353782653809 11.997416496276855"><g><path d="M12.8881,10.6021L7.27461,0.467012C7.11668,0.178257,6.82242,0,6.50368,0C6.18494,-3.41982e-8,5.89068,0.178257,5.73275,0.467012L0.119228,10.6021C-0.221137,11.223,0.207699,11.9959,0.893396,11.9974L12.1172,11.9974C12.8015,11.9933,13.2278,11.2217,12.8881,10.6021ZM5.8688,4.08863C5.8688,3.71547,6.15885,3.41296,6.51664,3.41296C6.86809,3.42212,7.14839,3.72197,7.14828,4.08863L7.14828,7.56836C7.08697,7.88327,6.8215,8.10958,6.5134,8.10958C6.2053,8.10958,5.93983,7.88327,5.87852,7.56836L5.8688,4.08863ZM7.14828,11.0076L5.8526,11.0076L5.8526,9.6562L7.14828,9.6562L7.14828,11.0076Z" fill="#FFFFFF" fill-opacity="1"/></g></svg>