<svg xmlns="http://www.w3.org/2000/svg" xmlns:xlink="http://www.w3.org/1999/xlink" fill="none" version="1.1" width="14" height="14" viewBox="0 0 14 14"><g><path d="M11.9372,2.06502C11.9362,2.06502,11.9358,2.06397,11.9352,2.06363C9.18629,-0.687297,4.72843,-0.687818,1.97869,2.06172C-0.724836,4.85885,-0.648387,9.31881,2.14931,12.022C4.87924,14.6591,9.20765,14.6596,11.9378,12.022C14.6877,9.27295,14.6873,4.81455,11.9372,2.06502ZM10.0086,10.0937C9.7775,10.3248,9.40519,10.3325,9.16474,10.111L6.95501,7.90461L4.7498,10.111C4.50956,10.3335,4.13644,10.3264,3.9049,10.0948C3.67337,9.86333,3.66622,9.49023,3.8887,9.25001L6.09704,7.04357L3.8887,4.83714C3.66814,4.59672,3.67611,4.22525,3.90677,3.99452C4.13743,3.76378,4.50893,3.75566,4.74945,3.97611L6.95484,6.18254L9.163,3.97385C9.40324,3.75138,9.77636,3.75853,10.0079,3.99005C10.2394,4.22156,10.2466,4.59466,10.0241,4.83488L7.81749,7.04288L10.0269,9.24932C10.2481,9.49009,10.2399,9.86252,10.0083,10.0933L10.0086,10.0937Z" fill="#FFFFFF" fill-opacity="1"/></g></svg>