<svg xmlns="http://www.w3.org/2000/svg" xmlns:xlink="http://www.w3.org/1999/xlink" fill="none" version="1.1" width="12" height="12" viewBox="0 0 12 12"><g><path d="M9.71174,8.6511L11.7804,10.7198C12.0733,11.0126,12.0733,11.4876,11.7804,11.7804C11.4876,12.0733,11.0126,12.0733,10.7198,11.7804L8.65109,9.71178M9.90011,5.40018C9.90011,2.91484,7.88535,0.900082,5.39999,0.900082C2.91482,0.900082,0.900092,2.91484,0.900092,5.40018C0.900092,7.88535,2.91482,9.90008,5.39999,9.90008C7.88535,9.90008,9.90011,7.88535,9.90011,5.40018ZM8.65109,9.71178C6.38641,11.4195,3.18642,11.0838,1.32519,8.94331C-0.536063,6.80306,-0.423921,3.58738,1.58165,1.58181C3.58738,-0.423911,6.80287,-0.536074,8.94336,1.32516C11.0838,3.18641,11.4195,6.38639,9.71176,8.6511" fill="#475F7D" fill-opacity="1"/></g></svg>