<svg xmlns="http://www.w3.org/2000/svg" xmlns:xlink="http://www.w3.org/1999/xlink" fill="none" version="1.1" width="14" height="14" viewBox="0 0 14 14"><g><path d="M7,0C3.135,0,0,3.135,0,7C0,10.866,3.135,14,7,14C10.867,14,14,10.866,14,7C14,3.135,10.867,0,7,0ZM7,11C6.587,11,6.25,10.664,6.25,10.25C6.25,9.836,6.587,9.5,7,9.5C7.416,9.5,7.75,9.836,7.75,10.25C7.75,10.664,7.416,11,7,11ZM7.75,7.25C7.75,7.66421,7.41421,8,7,8C6.58579,8,6.25,7.66421,6.25,7.25L6.25,3.75C6.25,3.33579,6.58579,3,7,3C7.41421,3,7.75,3.33579,7.75,3.75L7.75,7.25Z" fill="#FF7D00" fill-opacity="1"/></g></svg>