<svg xmlns="http://www.w3.org/2000/svg" xmlns:xlink="http://www.w3.org/1999/xlink" fill="none" version="1.1" width="14" height="14" viewBox="0 0 14 14"><defs><clipPath id="master_svg0_7285_001709"><rect x="0" y="0" width="14" height="14" rx="0"/></clipPath></defs><g clip-path="url(#master_svg0_7285_001709)"><g><path d="M10.86642126953125,10.866604375C10.67501126953125,11.058004375,10.361921269531251,11.058004375,10.17052126953125,10.866604375L3.13360626953125,3.829687375C2.94219966953125,3.638281375,2.94219966953125,3.325195375,3.13360626953125,3.133789375C3.32501226953125,2.942382775,3.63809826953125,2.942382775,3.82950426953125,3.133789375L10.86778126953125,10.172074375000001C11.05782126953125,10.362114375,11.05782126953125,10.675194375,10.86642126953125,10.866604375Z" fill="#F16464" fill-opacity="1"/></g><g><path d="M10.86642126953125,3.133960375C11.05782126953125,3.3253663749999998,11.05782126953125,3.638452375,10.86642126953125,3.829859375L3.82950426953125,10.866774375C3.63809826953125,11.058184375,3.32501226953125,11.058184375,3.13360626953125,10.866774375C2.94219966953125,10.675364375000001,2.94219966953125,10.362284375,3.13360626953125,10.170874375L10.171891269531251,3.132593375C10.36193126953125,2.942554275,10.67501126953125,2.942554275,10.86642126953125,3.133960375Z" fill="#F16464" fill-opacity="1"/></g></g></svg>