<svg xmlns="http://www.w3.org/2000/svg" xmlns:xlink="http://www.w3.org/1999/xlink" fill="none" version="1.1" width="12" height="12" viewBox="0 0 12 12"><defs><clipPath id="master_svg0_7285_001734"><rect x="0" y="0" width="12" height="12" rx="0"/></clipPath></defs><g clip-path="url(#master_svg0_7285_001734)"><g><path d="M6,1.09091C8.7,1.09091,10.9091,3.3,10.9091,6C10.9091,8.7,8.7,10.9091,6,10.9091C3.3,10.9091,1.09091,8.7,1.09091,6C1.09091,3.3,3.3,1.09091,6,1.09091ZM6,0C2.67273,0,0,2.67273,0,6C0,9.32727,2.67273,12,6,12C9.32727,12,12,9.32727,12,6C12,2.67273,9.32727,0,6,0Z" fill="#ADC2E1" fill-opacity="1"/></g><g><path d="M7.909078808593749,8.7275390625C7.74543880859375,8.7275390625,7.60907880859375,8.6729990625,7.499978808593751,8.536629062500001L5.59089280859375,6.3548090625C5.50907410859375,6.272989062500001,5.45452880859375,6.1366290625,5.45452880859375,6.0002690625L5.45452880859375,3.2729940625C5.45452880859375,2.9729930625,5.69998380859375,2.7275390625,5.9999838085937505,2.7275390625C6.29998380859375,2.7275390625,6.54543880859375,2.9729930625,6.54543880859375,3.2729940625L6.54543880859375,5.7820890625L8.31816880859375,7.8002690625C8.509078808593749,8.0184490625,8.48179880859375,8.3729890625,8.26361880859375,8.563899062499999C8.15452880859375,8.6729990625,8.045438808593751,8.7275390625,7.909078808593749,8.7275390625Z" fill="#ADC2E1" fill-opacity="1"/></g></g></svg>