<svg xmlns="http://www.w3.org/2000/svg" xmlns:xlink="http://www.w3.org/1999/xlink" fill="none" version="1.1" width="10" height="12" viewBox="0 0 10 12"><g style="mix-blend-mode:passthrough" transform="matrix(0,1,-1,0,10,-10)"><path d="M20.108800000000002,5.93051Q20.1282,5.95847,20.1456,5.98769Q20.163,6.01691,20.1784,6.04725Q20.1938,6.07759,20.2071,6.1089Q20.220399999999998,6.14021,20.2316,6.17236Q20.2427,6.20451,20.2517,6.23733Q20.2606,6.27016,20.2673,6.30352Q20.274,6.33689,20.278399999999998,6.37062Q20.2828,6.40436,20.2849,6.43832Q20.287,6.47228,20.2868,6.5063Q20.2865,6.54033,20.284,6.57426Q20.2815,6.60819,20.276699999999998,6.64187Q20.2718,6.67554,20.264699999999998,6.70882Q20.2576,6.74209,20.2483,6.77481Q20.2389,6.80752,20.2274,6.83952Q20.2158,6.87153,20.2021,6.90267Q20.1884,6.93381,20.1726,6.96395Q20.1569,6.99409,20.1391,7.02309Q20.121299999999998,7.05209,20.1015,7.07981Q20.0818,7.10753,20.060200000000002,7.13385Q20.0387,7.16016,20.0154,7.18495Q19.992060000000002,7.20974,19.967129999999997,7.23289Q19.94219,7.25604,19.91574,7.27744Q19.889290000000003,7.29884,19.86144,7.31839Q19.8336,7.33794,19.80449,7.35556Q19.77538,7.37317,19.74514,7.38877Q19.7149,7.40436,19.68367,7.41787Q19.65244,7.43137,19.62037,7.44272Q19.58829,7.45407,19.55552,7.46321Q19.522750000000002,7.47236,19.48943,7.47925Q19.456110000000002,7.48615,19.4224,7.49076Q19.38869,7.49537,19.35475,7.49769Q19.3208,7.5,19.28678,7.5L12.71322,7.5Q12.6792,7.5,12.64525,7.49769Q12.61131,7.49537,12.5776,7.49076Q12.543890000000001,7.48615,12.51057,7.47925Q12.47725,7.47236,12.44448,7.46321Q12.41171,7.45407,12.37963,7.44272Q12.34756,7.43137,12.31633,7.41787Q12.2851,7.40436,12.25486,7.38877Q12.22462,7.37317,12.19551,7.35556Q12.1664,7.33794,12.13856,7.31839Q12.110710000000001,7.29884,12.08426,7.27744Q12.05781,7.25604,12.032869999999999,7.23289Q12.00794,7.20974,11.98463,7.18495Q11.96133,7.16016,11.93976,7.13385Q11.9182,7.10753,11.89847,7.07981Q11.87874,7.05209,11.86094,7.02309Q11.84315,6.99409,11.82736,6.96395Q11.81158,6.93381,11.79787,6.90267Q11.78417,6.87153,11.77262,6.83952Q11.76107,6.80752,11.75172,6.77481Q11.74237,6.74209,11.73527,6.70882Q11.728159999999999,6.67554,11.72333,6.64187Q11.71851,6.60819,11.71598,6.57426Q11.71345,6.54033,11.71324,6.5063Q11.71303,6.47228,11.71512,6.43832Q11.71722,6.40436,11.72162,6.37062Q11.72603,6.33689,11.73271,6.30353Q11.7394,6.27016,11.74833,6.23734Q11.75727,6.20451,11.76842,6.17236Q11.77957,6.14021,11.79287,6.1089Q11.80618,6.07759,11.82158,6.04725Q11.83699,6.01691,11.85442,5.98769Q11.87185,5.95847,11.89123,5.93051L15.17801,1.18645Q15.21239,1.13682,15.252500000000001,1.09168Q15.29261,1.04655,15.33785,1.00657Q15.383099999999999,0.966587,15.43283,0.932342Q15.48256,0.898096,15.53605,0.870083Q15.58954,0.842069,15.64601,0.820695Q15.702480000000001,0.799321,15.76111,0.784897Q15.81974,0.770472,15.87968,0.763207Q15.93962,0.755942,16,0.755942Q16.060380000000002,0.755942,16.12032,0.763207Q16.18026,0.770472,16.238889999999998,0.784897Q16.297530000000002,0.799321,16.354,0.820695Q16.41047,0.842069,16.46395,0.870083Q16.51744,0.898096,16.56717,0.932342Q16.6169,0.966588,16.66215,1.00657Q16.70739,1.04655,16.7475,1.09168Q16.78761,1.13682,16.82199,1.18645L20.108800000000002,5.93051Z" fill="#5985FF" fill-opacity="1"/></g></svg>