<svg xmlns="http://www.w3.org/2000/svg" xmlns:xlink="http://www.w3.org/1999/xlink" fill="none" version="1.1" width="17.882352828979492" height="17.882352828979492" viewBox="0 0 17.882352828979492 17.882352828979492"><g><path d="M16.1949,14.3059L14.6313,12.6294C15.3014,11.5118,15.7482,10.2824,15.7482,8.94118C15.7482,5.25294,12.7326,2.23529,9.04682,2.23529C5.36108,2.23529,2.34547,5.25294,2.34547,8.94118C2.34547,12.6294,5.36108,15.6471,9.04682,15.6471C10.4988,15.6471,11.839,15.2,12.8442,14.4176L14.4079,15.9824C12.9559,17.1,11.0572,17.8824,8.93513,17.8824C4.02081,17.8824,0,13.8588,0,8.94118C0,4.02353,4.02081,0,8.93513,0C13.8495,0,17.8703,4.02353,17.8703,8.94118C17.9819,10.9529,17.3118,12.7412,16.1949,14.3059ZM9.04682,14.5294C5.91952,14.5294,3.46236,12.0706,3.46236,8.94118C3.46236,5.81176,5.91952,3.35294,9.04682,3.35294C12.1741,3.35294,14.6313,5.81176,14.6313,8.94118C14.6313,12.0706,12.1741,14.5294,9.04682,14.5294ZM9.04682,12.2941C10.9455,12.2941,12.3975,10.8412,12.3975,8.94118C12.3975,7.04118,10.9455,5.58823,9.04682,5.58823C7.1481,5.58823,5.69615,7.04118,5.69615,8.94118C5.69615,10.8412,7.1481,12.2941,9.04682,12.2941ZM9.04682,10.0588C8.04162,10.0588,7.92993,9.27647,7.92993,8.94118C7.92993,8.71765,8.26499,7.82353,9.04682,6.14706C9.82864,7.82353,10.1637,8.71765,10.1637,8.94118C10.1637,9.27647,10.052,10.0588,9.04682,10.0588Z" fill="#475F7D" fill-opacity="1"/></g></svg>